<svg xmlns="http://www.w3.org/2000/svg" version="1.1" id="svg" fill="#ff0000" stroke="#ff0000" width="200" height="200" viewBox="144 144 512 512"><g id="IconSvg_bgCarrier" stroke-width="0"></g><g id="IconSvg_tracerCarrier" stroke-linecap="round" stroke-linejoin="round" stroke="#CCCCCC" stroke-width="0">
      <path xmlns="http://www.w3.org/2000/svg" d="m547.76 338.77h-50.363v-28.262c12.328-8.2656 16.734-18.531 18.137-26.168 4.8008-26.309-18.578-52.539-21.285-55.434-4.457-4.8477-12.879-4.8477-17.352 0-2.6758 2.9141-26.039 29.141-21.254 55.449 1.418 7.6367 5.8086 17.887 18.105 26.152v28.262h-61.941v-28.262c12.328-8.2656 16.734-18.516 18.105-26.168 4.8008-26.309-18.578-52.539-21.254-55.434-4.457-4.8477-12.879-4.8477-17.352 0-2.707 2.9141-26.07 29.141-21.254 55.434 1.3867 7.6367 5.7773 17.902 18.105 26.168v28.262h-62v-28.262c12.328-8.2656 16.734-18.516 18.105-26.168 4.8008-26.309-18.578-52.539-21.254-55.434-4.457-4.8477-12.879-4.8477-17.352 0-2.6406 2.8984-26.02 29.129-21.188 55.438 1.3867 7.6367 5.7773 17.902 18.105 26.168v28.262l-50.332-0.003907c-22.043 0-39.941 17.918-39.941 39.941v184.21c0 6.5195 5.2891 11.809 11.809 11.809h351.79c6.5195 0 11.809-5.2891 11.809-11.809v-184.21c-0.003906-22.023-17.938-39.941-39.945-39.941zm-62.145-81.934c4.2969 7.1797 7.9961 16.012 6.6758 23.27-0.28516 1.543-1.0078 5.6211-6.707 9.8867-5.6211-4.25-6.3906-8.3125-6.6758-9.8555-1.3203-7.1914 2.3945-16.074 6.707-23.301zm-85.613 0c4.2969 7.1797 7.9961 16.012 6.6758 23.27-0.28516 1.5469-1.0234 5.6211-6.6758 9.8906-5.6523-4.2656-6.3906-8.3125-6.707-9.8555-1.3242-7.1953 2.4062-16.078 6.707-23.305zm-85.602 0c4.2969 7.1797 7.9961 16.012 6.6758 23.27-0.28516 1.543-1.0078 5.6211-6.6758 9.8867-5.6523-4.2656-6.3906-8.3125-6.707-9.8555-1.3242-7.1914 2.3945-16.074 6.707-23.301zm-62.156 105.55h295.52c9.0039 0 16.328 7.3203 16.328 16.328v34.352l-46.902 25.16-53.137-28.496c-3.4805-1.8594-7.6836-1.875-11.164 0l-53.012 28.48-52.98-28.48c-3.5117-1.875-7.6836-1.875-11.195 0l-53.012 28.48-46.77-25.145v-34.352c0-9.0078 7.3203-16.328 16.328-16.328zm-16.328 188.72v-111.21l41.172 22.137c3.5117 1.875 7.6836 1.875 11.195 0l53.012-28.48 52.98 28.48c1.7461 0.94531 3.6523 1.4023 5.5898 1.4023 1.9062 0 3.8398-0.47266 5.5742-1.4023l53.043-28.496 53.137 28.496c3.4805 1.8594 7.6836 1.8594 11.164 0l41.297-22.168v111.23h-328.16z"></path>

      </g><g id="IconSvg_iconCarrier">
      <path xmlns="http://www.w3.org/2000/svg" d="m547.76 338.77h-50.363v-28.262c12.328-8.2656 16.734-18.531 18.137-26.168 4.8008-26.309-18.578-52.539-21.285-55.434-4.457-4.8477-12.879-4.8477-17.352 0-2.6758 2.9141-26.039 29.141-21.254 55.449 1.418 7.6367 5.8086 17.887 18.105 26.152v28.262h-61.941v-28.262c12.328-8.2656 16.734-18.516 18.105-26.168 4.8008-26.309-18.578-52.539-21.254-55.434-4.457-4.8477-12.879-4.8477-17.352 0-2.707 2.9141-26.07 29.141-21.254 55.434 1.3867 7.6367 5.7773 17.902 18.105 26.168v28.262h-62v-28.262c12.328-8.2656 16.734-18.516 18.105-26.168 4.8008-26.309-18.578-52.539-21.254-55.434-4.457-4.8477-12.879-4.8477-17.352 0-2.6406 2.8984-26.02 29.129-21.188 55.438 1.3867 7.6367 5.7773 17.902 18.105 26.168v28.262l-50.332-0.003907c-22.043 0-39.941 17.918-39.941 39.941v184.21c0 6.5195 5.2891 11.809 11.809 11.809h351.79c6.5195 0 11.809-5.2891 11.809-11.809v-184.21c-0.003906-22.023-17.938-39.941-39.945-39.941zm-62.145-81.934c4.2969 7.1797 7.9961 16.012 6.6758 23.27-0.28516 1.543-1.0078 5.6211-6.707 9.8867-5.6211-4.25-6.3906-8.3125-6.6758-9.8555-1.3203-7.1914 2.3945-16.074 6.707-23.301zm-85.613 0c4.2969 7.1797 7.9961 16.012 6.6758 23.27-0.28516 1.5469-1.0234 5.6211-6.6758 9.8906-5.6523-4.2656-6.3906-8.3125-6.707-9.8555-1.3242-7.1953 2.4062-16.078 6.707-23.305zm-85.602 0c4.2969 7.1797 7.9961 16.012 6.6758 23.27-0.28516 1.543-1.0078 5.6211-6.6758 9.8867-5.6523-4.2656-6.3906-8.3125-6.707-9.8555-1.3242-7.1914 2.3945-16.074 6.707-23.301zm-62.156 105.55h295.52c9.0039 0 16.328 7.3203 16.328 16.328v34.352l-46.902 25.16-53.137-28.496c-3.4805-1.8594-7.6836-1.875-11.164 0l-53.012 28.48-52.98-28.48c-3.5117-1.875-7.6836-1.875-11.195 0l-53.012 28.48-46.77-25.145v-34.352c0-9.0078 7.3203-16.328 16.328-16.328zm-16.328 188.72v-111.21l41.172 22.137c3.5117 1.875 7.6836 1.875 11.195 0l53.012-28.48 52.98 28.48c1.7461 0.94531 3.6523 1.4023 5.5898 1.4023 1.9062 0 3.8398-0.47266 5.5742-1.4023l53.043-28.496 53.137 28.496c3.4805 1.8594 7.6836 1.8594 11.164 0l41.297-22.168v111.23h-328.16z"></path>

      </g></svg>